<?xml version="1.0" standalone="no"?>
<!DOCTYPE svg PUBLIC "-//W3C//DTD SVG 20010904//EN"
 "http://www.w3.org/TR/2001/REC-SVG-20010904/DTD/svg10.dtd">
<svg version="1.0" xmlns="http://www.w3.org/2000/svg"
 width="474.000000pt" height="474.000000pt" viewBox="0 0 474.000000 474.000000"
 preserveAspectRatio="xMidYMid meet">

<g transform="translate(0.000000,474.000000) scale(0.100000,-0.100000)"
fill="#000000" stroke="none">
<path d="M1240 4416 c-316 -57 -570 -193 -790 -423 -349 -364 -471 -841 -359
-1403 136 -681 662 -1344 1502 -1894 194 -127 382 -235 568 -326 207 -101 253
-96 552 66 779 420 1364 939 1685 1496 299 517 378 1105 211 1560 -171 467
-561 807 -1049 914 -67 15 -127 19 -285 19 -185 0 -208 -2 -310 -28 -213 -53
-375 -130 -537 -253 l-58 -44 -32 29 c-128 111 -376 228 -588 277 -92 21 -412
27 -510 10z m1216 -665 c79 -36 116 -113 153 -316 11 -60 25 -159 31 -220 6
-60 24 -220 40 -355 16 -135 50 -423 75 -640 25 -217 48 -411 51 -430 6 -32
10 -23 44 90 150 493 213 701 245 805 49 159 72 204 117 227 53 28 123 26 154
-3 45 -42 56 -75 49 -140 -7 -56 -3 -70 55 -232 35 -95 66 -176 71 -181 4 -5
21 18 38 51 37 75 77 109 139 120 26 4 160 8 297 8 l250 0 0 -140 0 -140 -196
-5 c-193 -5 -196 -5 -237 -33 -51 -33 -93 -114 -176 -339 -9 -25 -28 -53 -41
-62 -32 -21 -109 -20 -145 1 -33 19 -30 14 -122 243 -39 96 -73 179 -76 184
-2 5 -34 -85 -69 -200 -35 -115 -75 -243 -87 -284 -13 -41 -49 -160 -81 -265
-31 -104 -70 -233 -85 -285 -52 -171 -114 -244 -206 -242 -90 1 -156 73 -199
220 -22 73 -32 155 -60 457 -28 309 -41 445 -85 890 -16 165 -35 358 -41 428
-7 70 -16 124 -19 120 -8 -8 -21 -47 -186 -533 -229 -677 -223 -662 -270 -699
-37 -29 -121 -29 -158 0 -36 29 -55 69 -130 276 -119 328 -134 368 -140 368
-3 0 -54 -56 -113 -125 -60 -69 -128 -137 -153 -152 l-45 -28 -333 -5 -332 -6
0 145 0 145 253 3 252 3 57 28 c61 30 138 108 310 312 131 155 172 174 237
108 29 -29 48 -66 81 -158 134 -370 127 -353 140 -320 25 65 231 661 290 840
78 237 152 397 209 448 48 43 83 47 147 18z"/>
</g>
</svg>
